{
    "asset": {
        "version": "2.0",
        "generator": "Open Asset Import Library (assimp v3.1.151885474)"
    },
    "accessors": [
        {
            "bufferView": 0,
            "byteOffset": 0,
            "componentType": 5126,
            "count": 1224,
            "type": "VEC3",
            "max": [
                0.35820895433425906,
                1.0229052305221558,
                0.005398096516728401
            ],
            "min": [
                -0.35820895433425906,
                0.02290511131286621,
                0.001373143633827567
            ]
        },
        {
            "bufferView": 1,
            "byteOffset": 0,
            "componentType": 5126,
            "count": 1224,
            "type": "VEC3",
            "max": [
                1.0,
                1.0,
                1.0
            ],
            "min": [
                -1.0,
                -1.0,
                -1.0
            ]
        },
        {
            "bufferView": 2,
            "byteOffset": 0,
            "componentType": 5126,
            "count": 1224,
            "type": "VEC4",
            "max": [
                1.0,
                1.0,
                1.0,
                1.0
            ],
            "min": [
                -1.0,
                -1.0,
                -1.0,
                -1.0
            ]
        },
        {
            "bufferView": 3,
            "byteOffset": 0,
            "componentType": 5126,
            "count": 1224,
            "type": "VEC2",
            "max": [
                1.0,
                0.7572484612464905
            ],
            "min": [
                0.0008288687095046043,
                0.0022159814834594728
            ]
        },
        {
            "bufferView": 4,
            "byteOffset": 0,
            "componentType": 5123,
            "count": 4104,
            "type": "SCALAR",
            "max": [
                1223.0
            ],
            "min": [
                0.0
            ]
        },
        {
            "bufferView": 5,
            "byteOffset": 0,
            "componentType": 5126,
            "count": 1310,
            "type": "VEC3",
            "max": [
                0.06820667535066605,
                1.2293701171875,
                0.032051652669906619
            ],
            "min": [
                -0.06900212168693543,
                1.1182847023010255,
                -0.031905174255371097
            ]
        },
        {
            "bufferView": 6,
            "byteOffset": 0,
            "componentType": 5126,
            "count": 1310,
            "type": "VEC3",
            "max": [
                0.9866361618041992,
                0.999980628490448,
                0.9908396601676941
            ],
            "min": [
                -0.9866361618041992,
                -0.9990123510360718,
                -0.9909758567810059
            ]
        },
        {
            "bufferView": 7,
            "byteOffset": 0,
            "componentType": 5126,
            "count": 1310,
            "type": "VEC4",
            "max": [
                1.0,
                1.0,
                1.0,
                1.0
            ],
            "min": [
                -1.0,
                -1.0,
                -1.0,
                -1.0
            ]
        },
        {
            "bufferView": 8,
            "byteOffset": 0,
            "componentType": 5126,
            "count": 1310,
            "type": "VEC2",
            "max": [
                1.0044538974761963,
                1.0
            ],
            "min": [
                -0.0044538769870996479,
                -0.040865302085876468
            ]
        },
        {
            "bufferView": 9,
            "byteOffset": 0,
            "componentType": 5123,
            "count": 3576,
            "type": "SCALAR",
            "max": [
                1309.0
            ],
            "min": [
                0.0
            ]
        },
        {
            "bufferView": 10,
            "byteOffset": 0,
            "componentType": 5126,
            "count": 2893,
            "type": "VEC3",
            "max": [
                0.0240955650806427,
                1.1183339357376099,
                0.04557737708091736
            ],
            "min": [
                -0.02497348189353943,
                0.9323668479919434,
                -0.04476478695869446
            ]
        },
        {
            "bufferView": 11,
            "byteOffset": 0,
            "componentType": 5126,
            "count": 2893,
            "type": "VEC3",
            "max": [
                0.9996973872184753,
                0.9998471736907959,
                0.9889284372329712
            ],
            "min": [
                -0.9976668953895569,
                -0.9998416900634766,
                -0.992756187915802
            ]
        },
        {
            "bufferView": 12,
            "byteOffset": 0,
            "componentType": 5126,
            "count": 2893,
            "type": "VEC4",
            "max": [
                1.0,
                1.0,
                1.0,
                1.0
            ],
            "min": [
                -1.0,
                -1.0,
                -1.0,
                -1.0
            ]
        },
        {
            "bufferView": 13,
            "byteOffset": 0,
            "componentType": 5126,
            "count": 2893,
            "type": "VEC2",
            "max": [
                1.19272780418396,
                1.7248313426971436
            ],
            "min": [
                -0.051431816071271899,
                -0.07117509841918946
            ]
        },
        {
            "bufferView": 14,
            "byteOffset": 0,
            "componentType": 5123,
            "count": 7164,
            "type": "SCALAR",
            "max": [
                2892.0
            ],
            "min": [
                0.0
            ]
        }
    ],
    "buffers": [
        {
            "byteLength": 290184,
            "uri": "gencard.bin"
        }
    ],
    "bufferViews": [
        {
            "buffer": 0,
            "byteOffset": 0,
            "byteLength": 14688,
            "target": 34962
        },
        {
            "buffer": 0,
            "byteOffset": 14688,
            "byteLength": 14688,
            "target": 34962
        },
        {
            "buffer": 0,
            "byteOffset": 29376,
            "byteLength": 19584,
            "target": 34962
        },
        {
            "buffer": 0,
            "byteOffset": 48960,
            "byteLength": 9792,
            "target": 34962
        },
        {
            "buffer": 0,
            "byteOffset": 58752,
            "byteLength": 8208,
            "target": 34963
        },
        {
            "buffer": 0,
            "byteOffset": 66960,
            "byteLength": 15720,
            "target": 34962
        },
        {
            "buffer": 0,
            "byteOffset": 82680,
            "byteLength": 15720,
            "target": 34962
        },
        {
            "buffer": 0,
            "byteOffset": 98400,
            "byteLength": 20960,
            "target": 34962
        },
        {
            "buffer": 0,
            "byteOffset": 119360,
            "byteLength": 10480,
            "target": 34962
        },
        {
            "buffer": 0,
            "byteOffset": 129840,
            "byteLength": 7152,
            "target": 34963
        },
        {
            "buffer": 0,
            "byteOffset": 136992,
            "byteLength": 34716,
            "target": 34962
        },
        {
            "buffer": 0,
            "byteOffset": 171708,
            "byteLength": 34716,
            "target": 34962
        },
        {
            "buffer": 0,
            "byteOffset": 206424,
            "byteLength": 46288,
            "target": 34962
        },
        {
            "buffer": 0,
            "byteOffset": 252712,
            "byteLength": 23144,
            "target": 34962
        },
        {
            "buffer": 0,
            "byteOffset": 275856,
            "byteLength": 14328,
            "target": 34963
        }
    ],
    "materials": [
        {
            "name": "base",
            "pbrMetallicRoughness": {
                "metallicFactor": 0.0,
                "roughnessFactor": 0.5
            },
            "doubleSided": true
        },
        {
            "name": "metal",
            "pbrMetallicRoughness": {
                "baseColorFactor": [
                    0.03638001158833504,
                    0.03638001158833504,
                    0.03638001158833504,
                    1.0
                ],
                "roughnessFactor": 0.5
            },
            "doubleSided": true
        }
    ],
    "meshes": [
        {
            "name": "card",
            "primitives": [
                {
                    "mode": 4,
                    "material": 0,
                    "indices": 4,
                    "attributes": {
                        "POSITION": 0,
                        "NORMAL": 1,
                        "TANGENT": 2,
                        "TEXCOORD_0": 3
                    }
                }
            ]
        },
        {
            "name": "clip",
            "primitives": [
                {
                    "mode": 4,
                    "material": 1,
                    "indices": 9,
                    "attributes": {
                        "POSITION": 5,
                        "NORMAL": 6,
                        "TANGENT": 7,
                        "TEXCOORD_0": 8
                    }
                }
            ]
        },
        {
            "name": "clamp",
            "primitives": [
                {
                    "mode": 4,
                    "material": 1,
                    "indices": 14,
                    "attributes": {
                        "POSITION": 10,
                        "NORMAL": 11,
                        "TANGENT": 12,
                        "TEXCOORD_0": 13
                    }
                }
            ]
        }
    ],
    "nodes": [
        {
            "name": "ROOT",
            "children": [
                1,
                2,
                3
            ]
        },
        {
            "name": "card",
            "matrix": [
                1.0,
                0.0,
                0.0,
                0.0,
                0.0,
                1.0,
                0.0,
                0.0,
                0.0,
                0.0,
                1.0,
                0.0,
                -0.17412595450878144,
                -0.03145722672343254,
                0.4368237555027008,
                1.0
            ],
            "mesh": 0
        },
        {
            "name": "clip",
            "matrix": [
                1.0,
                0.0,
                0.0,
                0.0,
                0.0,
                1.0,
                0.0,
                0.0,
                0.0,
                0.0,
                1.0,
                0.0,
                -0.17412595450878144,
                -0.03145722672343254,
                0.4368237555027008,
                1.0
            ],
            "mesh": 1
        },
        {
            "name": "clamp",
            "matrix": [
                1.0,
                0.0,
                0.0,
                0.0,
                0.0,
                1.0,
                0.0,
                0.0,
                0.0,
                0.0,
                1.0,
                0.0,
                -0.17412595450878144,
                -0.03145722672343254,
                0.4368237555027008,
                1.0
            ],
            "mesh": 2
        }
    ],
    "scenes": [
        {
            "nodes": [
                0
            ]
        }
    ],
    "scene": 0
}