{
    "asset": {
        "version": "2.0",
        "generator": "Open Asset Import Library (assimp v5.4.0)"
    },
    "extensionsUsed": [
        "KHR_materials_volume",
        "FB_ngon_encoding"
    ],
    "accessors": [
        {
            "bufferView": 0,
            "byteOffset": 0,
            "componentType": 5126,
            "count": 1224,
            "type": "VEC3",
            "max": [
                0.35820895433425903,
                1.0229052305221558,
                0.005398096516728401
            ],
            "min": [
                -0.35820895433425903,
                0.02290511131286621,
                0.001373143633827567
            ]
        },
        {
            "bufferView": 1,
            "byteOffset": 0,
            "componentType": 5126,
            "count": 1224,
            "type": "VEC3",
            "max": [
                1.0,
                1.0,
                1.0
            ],
            "min": [
                -1.0,
                -1.0,
                -1.0
            ]
        },
        {
            "bufferView": 2,
            "byteOffset": 0,
            "componentType": 5126,
            "count": 1224,
            "type": "VEC2",
            "max": [
                1.0,
                0.7572484612464905
            ],
            "min": [
                0.0008288687095046043,
                0.0022159814834594727
            ]
        },
        {
            "bufferView": 3,
            "byteOffset": 0,
            "componentType": 5126,
            "count": 1224,
            "type": "VEC2",
            "max": [
                1.0,
                0.7572484612464905
            ],
            "min": [
                0.0008288687095046043,
                0.0022159814834594727
            ]
        },
        {
            "bufferView": 4,
            "byteOffset": 0,
            "componentType": 5125,
            "count": 4104,
            "type": "SCALAR",
            "max": [
                1223
            ],
            "min": [
                0
            ]
        },
        {
            "bufferView": 5,
            "byteOffset": 0,
            "componentType": 5126,
            "count": 1310,
            "type": "VEC3",
            "max": [
                0.06820667535066605,
                1.2293701171875,
                0.032051652669906616
            ],
            "min": [
                -0.06900212168693542,
                1.1182847023010254,
                -0.031905174255371094
            ]
        },
        {
            "bufferView": 6,
            "byteOffset": 0,
            "componentType": 5126,
            "count": 1310,
            "type": "VEC3",
            "max": [
                0.9866361618041992,
                0.9999807476997375,
                0.9908396601676941
            ],
            "min": [
                -0.9866361618041992,
                -0.9990124702453613,
                -0.9909759759902954
            ]
        },
        {
            "bufferView": 7,
            "byteOffset": 0,
            "componentType": 5126,
            "count": 1310,
            "type": "VEC2",
            "max": [
                1.0044538974761963,
                1.0
            ],
            "min": [
                -0.0044538769870996475,
                -0.040865302085876465
            ]
        },
        {
            "bufferView": 8,
            "byteOffset": 0,
            "componentType": 5126,
            "count": 1310,
            "type": "VEC2",
            "max": [
                1.0044538974761963,
                1.0
            ],
            "min": [
                -0.0044538769870996475,
                -0.040865302085876465
            ]
        },
        {
            "bufferView": 9,
            "byteOffset": 0,
            "componentType": 5125,
            "count": 3576,
            "type": "SCALAR",
            "max": [
                1309
            ],
            "min": [
                0
            ]
        },
        {
            "bufferView": 10,
            "byteOffset": 0,
            "componentType": 5126,
            "count": 2893,
            "type": "VEC3",
            "max": [
                0.0240955650806427,
                1.1183339357376099,
                0.04557737708091736
            ],
            "min": [
                -0.02497348189353943,
                0.9323668479919434,
                -0.04476478695869446
            ]
        },
        {
            "bufferView": 11,
            "byteOffset": 0,
            "componentType": 5126,
            "count": 2893,
            "type": "VEC3",
            "max": [
                0.9996973872184753,
                0.9998472929000854,
                0.9889285564422607
            ],
            "min": [
                -0.9976670145988464,
                -0.9998418092727661,
                -0.9927563071250916
            ]
        },
        {
            "bufferView": 12,
            "byteOffset": 0,
            "componentType": 5126,
            "count": 2893,
            "type": "VEC2",
            "max": [
                1.19272780418396,
                1.7248313426971436
            ],
            "min": [
                -0.051431816071271896,
                -0.07117509841918945
            ]
        },
        {
            "bufferView": 13,
            "byteOffset": 0,
            "componentType": 5126,
            "count": 2893,
            "type": "VEC2",
            "max": [
                1.19272780418396,
                1.7248313426971436
            ],
            "min": [
                -0.051431816071271896,
                -0.07117509841918945
            ]
        },
        {
            "bufferView": 14,
            "byteOffset": 0,
            "componentType": 5125,
            "count": 7164,
            "type": "SCALAR",
            "max": [
                2892
            ],
            "min": [
                0
            ]
        }
    ],
    "buffers": [
        {
            "byteLength": 276456,
            "uri": "gencard_0.bin"
        }
    ],
    "bufferViews": [
        {
            "buffer": 0,
            "byteOffset": 0,
            "byteLength": 14688,
            "target": 34962
        },
        {
            "buffer": 0,
            "byteOffset": 14688,
            "byteLength": 14688,
            "target": 34962
        },
        {
            "buffer": 0,
            "byteOffset": 29376,
            "byteLength": 9792,
            "target": 34962
        },
        {
            "buffer": 0,
            "byteOffset": 39168,
            "byteLength": 9792,
            "target": 34962
        },
        {
            "buffer": 0,
            "byteOffset": 48960,
            "byteLength": 16416,
            "target": 34963
        },
        {
            "buffer": 0,
            "byteOffset": 65376,
            "byteLength": 15720,
            "target": 34962
        },
        {
            "buffer": 0,
            "byteOffset": 81096,
            "byteLength": 15720,
            "target": 34962
        },
        {
            "buffer": 0,
            "byteOffset": 96816,
            "byteLength": 10480,
            "target": 34962
        },
        {
            "buffer": 0,
            "byteOffset": 107296,
            "byteLength": 10480,
            "target": 34962
        },
        {
            "buffer": 0,
            "byteOffset": 117776,
            "byteLength": 14304,
            "target": 34963
        },
        {
            "buffer": 0,
            "byteOffset": 132080,
            "byteLength": 34716,
            "target": 34962
        },
        {
            "buffer": 0,
            "byteOffset": 166796,
            "byteLength": 34716,
            "target": 34962
        },
        {
            "buffer": 0,
            "byteOffset": 201512,
            "byteLength": 23144,
            "target": 34962
        },
        {
            "buffer": 0,
            "byteOffset": 224656,
            "byteLength": 23144,
            "target": 34962
        },
        {
            "buffer": 0,
            "byteOffset": 247800,
            "byteLength": 28656,
            "target": 34963
        }
    ],
    "images": [
        {
            "uri": "textures/image_1.png"
        },
        {
            "uri": "textures/image_0.png"
        },
        {
            "uri": "textures/image_2.png"
        },
        {
            "uri": "textures/image_4.png"
        },
        {
            "uri": "textures/image_3.png"
        },
        {
            "uri": "textures/image_5.png"
        }
    ],
    "materials": [
        {
            "name": "base",
            "pbrMetallicRoughness": {
                "baseColorTexture": {
                    "index": 0
                },
                "metallicRoughnessTexture": {
                    "index": 1
                },
                "metallicFactor": 0.800000011920929
            },
            "normalTexture": {
                "index": 2
            },
            "occlusionTexture": {
                "index": 1,
                "texCoord": 1
            },
            "alphaCutoff": 0.10000000149011612,
            "alphaMode": "MASK"
        },
        {
            "name": "metal",
            "pbrMetallicRoughness": {
                "baseColorTexture": {
                    "index": 3
                },
                "metallicRoughnessTexture": {
                    "index": 4
                },
                "metallicFactor": 0.800000011920929
            },
            "normalTexture": {
                "index": 5
            },
            "occlusionTexture": {
                "index": 4,
                "texCoord": 1
            }
        }
    ],
    "meshes": [
        {
            "name": "meshes[0]",
            "primitives": [
                {
                    "mode": 4,
                    "material": 0,
                    "indices": 4,
                    "attributes": {
                        "POSITION": 0,
                        "NORMAL": 1,
                        "TEXCOORD_0": 2,
                        "TEXCOORD_1": 3
                    }
                }
            ]
        },
        {
            "name": "meshes[1]",
            "primitives": [
                {
                    "mode": 4,
                    "material": 1,
                    "indices": 9,
                    "attributes": {
                        "POSITION": 5,
                        "NORMAL": 6,
                        "TEXCOORD_0": 7,
                        "TEXCOORD_1": 8
                    }
                }
            ]
        },
        {
            "name": "meshes[2]",
            "primitives": [
                {
                    "mode": 4,
                    "material": 1,
                    "indices": 14,
                    "attributes": {
                        "POSITION": 10,
                        "NORMAL": 11,
                        "TEXCOORD_0": 12,
                        "TEXCOORD_1": 13
                    }
                }
            ]
        }
    ],
    "nodes": [
        {
            "name": "gencard",
            "children": [
                1
            ]
        },
        {
            "name": "ROOT",
            "children": [
                2,
                4,
                6
            ],
            "extras": {
                "name": "ROOT"
            }
        },
        {
            "name": "card",
            "matrix": [
                1.0,
                0.0,
                0.0,
                0.0,
                0.0,
                1.0,
                0.0,
                0.0,
                0.0,
                0.0,
                1.0,
                0.0,
                -0.17412595450878143,
                -0.03145722672343254,
                0.4368237555027008,
                1.0
            ],
            "children": [
                3
            ],
            "extras": {
                "name": "card"
            }
        },
        {
            "name": "card_1",
            "mesh": 0,
            "extras": {
                "name": "card"
            }
        },
        {
            "name": "clip",
            "matrix": [
                1.0,
                0.0,
                0.0,
                0.0,
                0.0,
                1.0,
                0.0,
                0.0,
                0.0,
                0.0,
                1.0,
                0.0,
                -0.17412595450878143,
                -0.03145722672343254,
                0.4368237555027008,
                1.0
            ],
            "children": [
                5
            ],
            "extras": {
                "name": "clip"
            }
        },
        {
            "name": "clip_1",
            "mesh": 1,
            "extras": {
                "name": "clip"
            }
        },
        {
            "name": "clamp",
            "matrix": [
                1.0,
                0.0,
                0.0,
                0.0,
                0.0,
                1.0,
                0.0,
                0.0,
                0.0,
                0.0,
                1.0,
                0.0,
                -0.17412595450878143,
                -0.03145722672343254,
                0.4368237555027008,
                1.0
            ],
            "children": [
                7
            ],
            "extras": {
                "name": "clamp"
            }
        },
        {
            "name": "clamp_1",
            "mesh": 2,
            "extras": {
                "name": "clamp"
            }
        }
    ],
    "samplers": [
        {
            "magFilter": 9729,
            "minFilter": 9985
        },
        {
            "magFilter": 9729,
            "minFilter": 9985
        },
        {
            "magFilter": 9729,
            "minFilter": 9985
        },
        {
            "magFilter": 9729,
            "minFilter": 9985
        },
        {
            "magFilter": 9729,
            "minFilter": 9985
        },
        {
            "magFilter": 9729,
            "minFilter": 9985
        }
    ],
    "scenes": [
        {
            "nodes": [
                0
            ]
        }
    ],
    "textures": [
        {
            "source": 0,
            "sampler": 0
        },
        {
            "source": 1,
            "sampler": 1
        },
        {
            "source": 2,
            "sampler": 2
        },
        {
            "source": 3,
            "sampler": 3
        },
        {
            "source": 4,
            "sampler": 4
        },
        {
            "source": 5,
            "sampler": 5
        }
    ],
    "scene": 0
}